{"title":"Saw 7, The Final Chapter 2010 DVDrip English Klam","uid":6492005,"size":1473808146,"categoryP":"video","categoryS":"movies","magnet":"?xt=urn:btih:a9ab50636ae38ec4e40319060a9e12f5883b5ba4&amp;dn=Saw+7%2C+The+Final+Chapter+2010+DVDrip+English+Klam&amp;tr=udp%3A%2F%2Ftracker.openbittorrent.com%3A80&amp;tr=udp%3A%2F%2Fopen.demonii.com%3A1337&amp;tr=udp%3A%2F%2Ftracker.coppersurfer.tk%3A6969&amp;tr=udp%3A%2F%2Fexodus.desync.com%3A6969","seeders":9,"leechers":2,"uploader":"Klambake","files":-1,"time":1308921661,"description":"With: Tobin Bell, Cary Elwes and Costas Mandylor\n\nHet gevecht tussen detective Hoffman en Jill Tuck duurt voort. Ondertussen ontmoeten een aantal overlevenden van de spelletjes van Jigsaw, waaronder Dr. Lawrence Gordon, elkaar bij een sessie van Bobby Dagen, die beweert zelf ook een overlevende van Jigsaw te zijn. Maar dan wordt Bobby ontvoerd en zal hij een serie tests moeten afleggen om zijn vrienden en uiteindelijk zijn vrouw te redden.\n\nAs a deadly battle rages over Jigsaw's brutal legacy, a group of Jigsaw survivors gathers to seek the support of self-help guru and fellow survivor Bobby Dagen, a man whose own dark secrets unleash a new wave of terror.\n\n------------------ Dutch Friends ------------------\n\nYou can find my Friends at: http://www.Film-Test.nl \n                    \n------ They got my dutchs subs ---- and more ------\n\nGeneral:\n\nComplete name                    : Saw 7\\Saw 7.avi\nFormat                           : AVI\nFormat/Info                      : Audio Video Interleave\nFile size                        : 1.37 GiB\nDuration                         : 1h 26mn\nOverall bit rate                 : 2 270 Kbps\n\nVideo:\n\nFormat                           : MPEG-4 Visual\nFormat profile                   : Simple@L3\nFormat settings, BVOP            : No\nFormat settings, QPel            : No\nFormat settings, GMC             : No warppoints\nFormat settings, Matrix          : Default (H.263)\nCodec ID                         : XVID\nCodec ID/Hint                    : XviD\nDuration                         : 1h 26mn\nBit rate                         : 1 811 Kbps\nWidth                            : 652 pixels\nHeight                           : 352 pixels\nDisplay aspect ratio             : 1.852\nFrame rate                       : 25.000 fps\nColor space                      : YUV\nChroma subsampling               : 4:2:0\nBit depth                        : 8 bits\nScan type                        : Progressive\nBits/(Pixel*Frame)               : 0.316\nStream size                      : 1.09 GiB (80%)\nWriting library                  : XviD 1.1.2 (UTC 2006-11-01)\n\nAudio:\n\nFormat                           : AC-3\nFormat/Info                      : Audio Coding 3\nMode extension                   : CM (complete main)\nCodec ID                         : 2000\nDuration                         : 1h 26mn\nBit rate mode                    : Constant\nBit rate                         : 448 Kbps\nChannel(s)                       : 6 channels\nChannel positions                : Front: L C R, Side: L R, LFE\nSampling rate                    : 48.0 KHz\nBit depth                        : 16 bits\nStream size                      : 277 MiB (20%)\nAlignment                        : Aligned on interleaves\nInterleave, duration             : 32 ms (0.80 video frame)\n\n\n","torrent":{"xt":"urn:btih:a9ab50636ae38ec4e40319060a9e12f5883b5ba4","amp;dn":"Saw+7%2C+The+Final+Chapter+2010+DVDrip+English+Klam","amp;tr":["udp%3A%2F%2Ftracker.openbittorrent.com%3A80","udp%3A%2F%2Fopen.demonii.com%3A1337","udp%3A%2F%2Ftracker.coppersurfer.tk%3A6969","udp%3A%2F%2Fexodus.desync.com%3A6969"],"infoHash":"a9ab50636ae38ec4e40319060a9e12f5883b5ba4","infoHashBuffer":{"type":"Buffer","data":[169,171,80,99,106,227,142,196,228,3,25,6,10,158,18,245,136,59,91,164]},"announce":[],"urlList":[]}}